# xmcd CD database file
#
# Track frame offsets:
#	182
#	10012
#	22947
#	35440
#	47855
#	62125
#	77895
#	95297
#	113367
#	127065
#	141435
#	154147
#	168442
#	180720
#	194030
#	205310
#	222572
#	234267
#	247977
#	260897
#	272660
#	287605
#	299837
#	314457
#	325727
#	339887
#
# Disc length: 4621 seconds
#
# Revision: 4
# Processed by: cddbd v1.5.2PL0 Copyright (c) Steve Scherf et al.
# Submitted via: CDex 1.75
#
DISCID=88120b1a
DTITLE=Otis Redding - Otis! - The Definitive Otis Redding (Disc-2)
DYEAR=1993
DGENRE=Soul
TTITLE0=Respect
TTITLE1=You Don't Miss Your Water
TTITLE2=Satisfaction
TTITLE3=I Can't Turn You Loose
TTITLE4=Cupid
TTITLE5=Just One More Day
TTITLE6=Good to Me
TTITLE7=Cigarettes and Coffee
TTITLE8=Chain Gang
TTITLE9=My Lover's Prayer
TTITLE10=It's Growing
TTITLE11=I'm Coming Home
TTITLE12=Fa-Fa-Fa-Fa-Fa (Sad Song)
TTITLE13=I'm Sick Y'All
TTITLE14=Sweet Lorene
TTITLE15=Try a Little Tenderness
TTITLE16=Day Tripper
TTITLE17=Tramp (with Carla Thomas as "Otis and Carla")
TTITLE18=Knock on Wood (with Carla Thomas as "Otis and Carla")
TTITLE19=Lovey Dovey (with Carla Thomas as "Otis and Carla")
TTITLE20=New Year's Resolution (with Carla Thomas as "Otis and Carla")
TTITLE21=You Left the Water Running
TTITLE22=Trick or Treat
TTITLE23=Merry Christmas, Baby
TTITLE24=White Christmas
TTITLE25=Things Go Better with Coke (A Man and a Woman) (radio spot)
EXTD=Label: Rhino Records Inc.\nR2 71439 YEAR: 1993
EXTT0=
EXTT1=
EXTT2=
EXTT3=
EXTT4=
EXTT5=
EXTT6=
EXTT7=
EXTT8=
EXTT9=
EXTT10=
EXTT11=
EXTT12=
EXTT13=
EXTT14=
EXTT15=
EXTT16=
EXTT17=
EXTT18=
EXTT19=
EXTT20=
EXTT21=
EXTT22=
EXTT23=
EXTT24=
EXTT25=
PLAYORDER=
